<?xml version="1.0" encoding="UTF-8"?><svg id="Layer_1" xmlns="http://www.w3.org/2000/svg" viewBox="0 0 500 112.72"><defs><style>.cls-1,.cls-2{fill:#fff;}.cls-2{opacity:.59;}</style></defs><g><path class="cls-1" d="M154.83,64.43V16.25h15.49l11.7,27.53h1.72l11.7-27.53h15.49v48.18h-10.32v-30.63l.69-6.19h-.69l-11.01,25.81h-13.42l-11.01-25.81h-.69l.69,6.19v30.63h-10.32Z"/><path class="cls-1" d="M239.83,65.8c-4.22,0-7.88-.83-10.98-2.48-3.1-1.65-5.48-4.01-7.16-7.09-1.68-3.07-2.51-6.65-2.51-10.74V16.25h10.32v29.25c0,3.26,.94,5.85,2.82,7.78,1.88,1.93,4.38,2.89,7.5,2.89s5.62-.96,7.5-2.89c1.88-1.93,2.82-4.52,2.82-7.78V16.25h10.32v29.25c0,4.08-.84,7.66-2.51,10.74-1.68,3.07-4.06,5.44-7.16,7.09-3.1,1.65-6.76,2.48-10.98,2.48Z"/><path class="cls-1" d="M269.09,64.43V16.25h13.42l18.93,34.07h.69l-.69-5.85V16.25h10.32v48.18h-13.42l-18.93-34.07h-.69l.69,5.85v28.22h-10.32Z"/><path class="cls-1" d="M335.85,64.43l12.73-48.18h21.68l12.73,48.18h-10.67l-2.75-10.67h-20.3l-2.75,10.67h-10.67Zm15.83-20.3h15.49l-4.82-18.24h-5.85l-4.82,18.24Z"/><path class="cls-1" d="M387.12,64.43V16.25h9.64V56.17h7.92v8.26h-17.55Z"/><path class="cls-1" d="M426.01,65.46c-3.49,0-6.68-.83-9.57-2.48-2.89-1.65-5.17-3.9-6.85-6.75-1.68-2.84-2.51-5.96-2.51-9.36s.84-6.51,2.51-9.36c1.67-2.84,3.96-5.09,6.85-6.75,2.89-1.65,6.08-2.48,9.57-2.48s6.78,.83,9.6,2.48c2.82,1.65,5.02,3.9,6.61,6.75,1.58,2.85,2.37,5.97,2.37,9.36v2.06h-27.53c.23,1.47,.77,2.83,1.62,4.1,.85,1.26,1.92,2.27,3.2,3.03,1.28,.76,2.66,1.14,4.13,1.14,2.02,0,3.7-.4,5.06-1.2,1.35-.8,2.31-1.78,2.86-2.93h10.32c-1.06,3.44-3.12,6.37-6.19,8.78-3.07,2.41-7.09,3.61-12.04,3.61Zm8.26-22.37c-.23-1.19-.72-2.28-1.48-3.27-.76-.99-1.72-1.78-2.89-2.37-1.17-.6-2.47-.89-3.89-.89s-2.73,.3-3.92,.89c-1.19,.6-2.18,1.39-2.96,2.37-.78,.99-1.35,2.08-1.72,3.27h16.86Z"/><path class="cls-1" d="M450.44,64.43V29.32h9.64v5.16h.34c.69-1.65,1.79-3.04,3.3-4.16,1.51-1.12,3.4-1.69,5.64-1.69h4.13v9.29h-5.16c-1.7,0-3.17,.32-4.4,.96-1.24,.64-2.19,1.56-2.86,2.75-.67,1.19-1,2.59-1,4.2v18.58h-9.64Z"/><path class="cls-1" d="M480.04,64.43v-26.84h-4.47v-8.26h4.47v-7.57h9.64v7.57h9.98v8.26h-9.98v18.58h10.32v8.26h-19.96Z"/></g><g><g><path class="cls-1" d="M24.69,64.17c-.69,0-1.36-.32-1.78-.92-5.59-7.98-8.55-17.33-8.55-27.04s2.96-19.06,8.55-27.04c.67-.96,2.02-1.21,3-.55,.98,.66,1.23,1.97,.56,2.93-5.1,7.27-7.79,15.8-7.79,24.65s2.7,17.38,7.79,24.65c.67,.96,.42,2.27-.56,2.93-.37,.25-.8,.37-1.22,.37Z"/><path class="cls-1" d="M102.01,64.17c-.42,0-.85-.12-1.22-.37-.98-.66-1.23-1.97-.56-2.93,5.1-7.27,7.79-15.8,7.79-24.65s-2.7-17.38-7.79-24.65c-.67-.96-.42-2.27,.56-2.93,.98-.66,2.33-.41,3,.55,5.59,7.98,8.55,17.33,8.55,27.04s-2.96,19.06-8.55,27.04c-.42,.6-1.09,.92-1.78,.92Z"/><path class="cls-1" d="M13.48,72.42c-.94,0-1.86-.44-2.43-1.25C3.82,60.85,0,48.76,0,36.21S3.82,11.57,11.06,1.25C11.97-.06,13.8-.39,15.14,.5c1.34,.9,1.68,2.69,.76,4C9.35,13.86,5.88,24.82,5.88,36.21s3.47,22.35,10.03,31.71c.92,1.31,.58,3.1-.76,4-.51,.34-1.09,.5-1.66,.5Z"/><path class="cls-1" d="M113.22,72.42c-.57,0-1.15-.16-1.66-.5-1.34-.9-1.68-2.69-.76-4,6.56-9.36,10.03-20.32,10.03-31.71s-3.47-22.35-10.03-31.71c-.92-1.31-.58-3.1,.76-4,1.34-.9,3.17-.56,4.09,.75,7.23,10.32,11.06,22.41,11.06,34.96s-3.82,24.64-11.06,34.96c-.57,.81-1.49,1.25-2.43,1.25Z"/></g><g><g><path class="cls-1" d="M80.58,65.37c-1.44,.81-2.97,1.19-4.48,1.19-1.3,0-2.58-.28-3.74-.8,1.37-2.53,1.56-5.51,.52-8.2l-3.21-8.3-1.2-3.1c.36-.18,.71-.37,1.05-.59,.05-.03,.09-.06,.13-.09,.1-.06,.21-.13,.3-.21,.07-.04,.13-.09,.19-.13,.14-.1,.28-.21,.42-.32,.59-.47,1.12-.99,1.6-1.56l2.61,2.09,7,5.61c2.13,1.7,3.21,4.08,3.29,6.48,.11,3.09-1.42,6.21-4.49,7.94Z"/><path class="cls-1" d="M71.3,65.21c-1.48,2.73-4.41,4.68-7.95,4.68-3.09,0-5.71-1.49-7.32-3.68,2.51-1.53,4.15-3.96,4.63-6.83l1.47-8.73v-.06l.56-3.27s.04,0,.06,0c.08,0,.15,0,.22,0,.13,0,.26,0,.38,0,.63,0,1.24-.05,1.84-.15,.75-.11,1.49-.31,2.18-.56l1.19,3.09,3.2,8.28c.97,2.51,.69,5.1-.47,7.22Z"/><path class="cls-1" d="M61.51,47.19l-.55,3.26-1.47,8.73c-.45,2.65-2.01,4.76-4.1,6.03-2.68,1.64-6.21,1.9-9.28,.17-2.67-1.51-4.18-4.07-4.45-6.75h0c2.95-.1,5.62-1.39,7.5-3.63l5.78-6.9,2.15-2.57c.57,.38,1.18,.7,1.82,.96,.13,.06,.26,.11,.4,.16,.7,.26,1.43,.45,2.18,.56Z"/><path class="cls-1" d="M56.14,44.82l-2.14,2.56-5.73,6.85c-1.74,2.08-4.18,3.13-6.63,3.21-3.16,.11-6.35-1.39-8.12-4.39-.83-1.4-1.21-2.91-1.21-4.38,0-1.27,.28-2.51,.81-3.65h.02c1.46,.77,3.1,1.18,4.74,1.18,1.22,0,2.43-.22,3.6-.65l8.52-3.15,3.18-1.17c.07,.13,.14,.26,.21,.4,.06,.11,.12,.21,.19,.32,.28,.47,.6,.91,.96,1.32,.48,.57,1.01,1.09,1.6,1.56Z"/><path class="cls-1" d="M52.69,40.14l-3.16,1.17-8.47,3.12c-2.57,.95-5.22,.67-7.39-.45-2.79-1.45-4.78-4.31-4.78-7.77,0-3.03,1.52-5.59,3.77-7.16l.02,.03c1.55,2.42,4.09,4.07,6.98,4.54l8.97,1.44,3.34,.53c0,.09-.01,.18-.01,.26,0,.12,0,.24,0,.36,0,.61,.05,1.22,.15,1.8,.12,.74,.32,1.45,.58,2.13Z"/><path class="cls-1" d="M53.83,30.1s-.01,.02-.02,.02c-.11,.16-.21,.32-.31,.49-.09,.15-.17,.3-.25,.45-.04,.08-.08,.15-.12,.23-.05,.09-.09,.19-.13,.28-.04,.07-.07,.14-.1,.22-.08,.16-.14,.32-.2,.48-.26,.68-.46,1.39-.58,2.13l-3.33-.53-8.93-1.43c-2.71-.43-4.87-1.97-6.17-4.01-1.67-2.62-1.94-6.07-.17-9.07,1.55-2.62,4.18-4.1,6.94-4.36h0c.1,2.88,1.46,5.56,3.73,7.37l7.02,5.62,2.62,2.1Z"/><path class="cls-1" d="M58.24,26.26c-.09,.04-.19,.09-.28,.14-.18,.09-.36,.2-.55,.3-.09,.06-.18,.11-.26,.17-.15,.09-.31,.2-.45,.3-.03,.02-.06,.04-.09,.06-.16,.12-.32,.24-.47,.36-.59,.47-1.12,.99-1.6,1.56l-2.61-2.09-7-5.61c-2.13-1.7-3.2-4.08-3.29-6.48-.11-3.09,1.42-6.21,4.49-7.94,1.44-.81,2.98-1.19,4.48-1.19,1.3,0,2.58,.28,3.74,.8-1.37,2.52-1.56,5.51-.52,8.2l3.21,8.3,1.2,3.1Z"/><path class="cls-1" d="M70.66,6.21c-2.5,1.54-4.15,3.96-4.63,6.83l-1.47,8.73v.05l-.56,3.27h0c-.1,0-.21,0-.31,0-.06,0-.12,0-.17,0-.06,0-.12,0-.18,0-.63,0-1.24,.05-1.84,.15-.75,.12-1.49,.31-2.18,.57l-1.19-3.09-3.2-8.27c-.97-2.51-.69-5.1,.47-7.22,1.48-2.73,4.41-4.68,7.95-4.68,3.09,0,5.71,1.49,7.31,3.68Z"/><path class="cls-1" d="M85.03,13.8c-2.95,.1-5.62,1.39-7.5,3.64l-5.78,6.9-2.15,2.57h0c-.61-.39-1.25-.73-1.93-1-.1-.04-.19-.08-.29-.11-.7-.26-1.43-.45-2.18-.57l.55-3.25,1.47-8.73c.45-2.65,2.01-4.75,4.1-6.02,2.68-1.64,6.21-1.9,9.28-.17,2.67,1.51,4.18,4.07,4.45,6.75Z"/><path class="cls-1" d="M93.19,53.05c-1.55,2.62-4.18,4.1-6.93,4.36h0c-.1-2.86-1.46-5.55-3.73-7.37l-7.02-5.62-2.62-2.1c.22-.32,.42-.66,.6-1.01,.02-.04,.05-.08,.06-.13,.06-.11,.12-.23,.17-.35,.04-.07,.06-.13,.09-.21,.08-.16,.14-.32,.2-.48,.26-.68,.46-1.39,.58-2.13l3.33,.53,8.93,1.43c2.71,.43,4.87,1.97,6.17,4.01,1.68,2.62,1.94,6.07,.17,9.07Z"/><path class="cls-1" d="M94.4,23.75c0,1.27-.28,2.51-.81,3.65h-.02c-1.46-.77-3.1-1.18-4.74-1.18-1.22,0-2.43,.22-3.6,.65l-8.52,3.15-3.18,1.17h0c-.19-.36-.4-.71-.62-1.05-.1-.16-.21-.31-.33-.47-.01-.02-.02-.04-.05-.06-.11-.15-.23-.3-.36-.45-.48-.57-1.01-1.09-1.6-1.56l2.14-2.56,5.73-6.84c1.74-2.08,4.18-3.13,6.63-3.22,3.16-.11,6.35,1.39,8.12,4.39,.83,1.41,1.21,2.91,1.21,4.38Z"/><path class="cls-1" d="M97.8,36.21c0,3.03-1.52,5.59-3.77,7.16l-.02-.02c-1.55-2.42-4.09-4.08-6.98-4.54l-8.97-1.44-3.34-.53c0-.09,.01-.18,.01-.27,0-.12,0-.24,0-.36,0-.61-.05-1.22-.15-1.8-.12-.74-.32-1.45-.58-2.13l3.16-1.17,8.47-3.12c2.57-.95,5.22-.67,7.39,.45,2.79,1.45,4.78,4.31,4.78,7.77Z"/></g><path class="cls-1" d="M71.47,36.21c0,4.38-3.63,7.93-8.11,7.93s-8.11-3.55-8.11-7.93,3.63-7.93,8.11-7.93,8.11,3.55,8.11,7.93Z"/><path class="cls-2" d="M63.35,21.78c-.81,0-1.61,.06-2.39,.19-.98,.15-1.93,.4-2.83,.74l1.19,3.09c.7-.26,1.43-.45,2.18-.57,.6-.1,1.21-.15,1.84-.15,.06,0,.12,0,.18,0,.16,0,.32,0,.48,.02l.55-3.27c-.4-.03-.8-.05-1.21-.05Zm11.42,5.29c-.62-.74-1.32-1.42-2.07-2.03l-2.14,2.56c.59,.47,1.12,.99,1.6,1.56,.12,.15,.24,.3,.36,.45,.02,.02,.04,.04,.05,.06,.12,.15,.23,.31,.33,.47,.23,.34,.44,.69,.62,1.05l3.18-1.17c-.52-1.07-1.17-2.06-1.92-2.96Zm3.15,6.81c-.16-.96-.41-1.88-.76-2.77l-3.16,1.17c.26,.68,.46,1.39,.58,2.13,.1,.58,.15,1.19,.15,1.8,0,.12,0,.24,0,.36,0,.09,0,.18-.01,.27l3.34,.53c.04-.38,.05-.77,.05-1.16,0-.79-.07-1.58-.19-2.33Zm-5.76,9.39c-.48,.57-1.01,1.09-1.6,1.56-.14,.11-.28,.22-.42,.32-.06,.05-.13,.09-.19,.13-.1,.07-.2,.14-.3,.21-.04,.03-.09,.06-.13,.09-.34,.22-.69,.41-1.05,.59l1.2,3.1c1.1-.51,2.12-1.14,3.05-1.88,.75-.61,1.45-1.29,2.07-2.03l-2.61-2.09Zm-12.84,3.37c-.13-.05-.26-.1-.4-.16-.64-.26-1.25-.58-1.82-.96l-2.15,2.57c.98,.66,2.05,1.21,3.18,1.63,.9,.34,1.85,.58,2.83,.74l.55-3.26c-.75-.11-1.49-.31-2.18-.56Zm-8.12-18.62c-.68,.96-1.24,2-1.67,3.11-.34,.88-.6,1.81-.76,2.77l3.33,.53c.12-.74,.32-1.45,.58-2.13,.06-.16,.13-.32,.2-.48,.03-.08,.06-.15,.1-.22,.04-.09,.09-.19,.13-.28,.04-.08,.08-.15,.12-.23,.08-.15,.17-.3,.25-.45,.1-.17,.2-.33,.31-.49,0,0,0-.02,.02-.02l-2.62-2.1Zm.75,8.21c0-.12,0-.24,0-.36,0-.09,0-.18,.01-.26l-3.34-.53c-.04,.38-.05,.77-.05,1.15,0,.79,.07,1.58,.19,2.33,.16,.96,.41,1.88,.76,2.77l3.16-1.17c-.26-.68-.46-1.39-.58-2.13-.1-.58-.15-1.19-.15-1.8Zm2.58,7.05c-.35-.41-.67-.86-.96-1.32-.06-.1-.13-.21-.19-.32-.08-.13-.15-.26-.21-.4l-3.18,1.17c.52,1.06,1.17,2.05,1.92,2.95,.62,.74,1.32,1.42,2.07,2.03l2.14-2.56c-.59-.47-1.12-.99-1.6-1.56Zm12.84,3.37c-.7,.26-1.43,.45-2.18,.56-.6,.1-1.21,.15-1.84,.15-.13,0-.26,0-.38,0-.07,0-.15,0-.22,0-.02,0-.04,0-.06,0l-.55,3.27c.4,.03,.8,.05,1.21,.05,.81,0,1.61-.06,2.39-.19,.98-.15,1.93-.4,2.83-.74l-1.19-3.09Zm7.22-8.62c-.12,.74-.32,1.45-.58,2.13-.06,.16-.13,.32-.2,.48-.03,.07-.06,.14-.09,.21-.05,.12-.11,.24-.17,.35-.02,.04-.04,.09-.06,.13-.18,.35-.38,.68-.6,1.01l2.62,2.1c.68-.96,1.24-1.99,1.67-3.1,.34-.88,.6-1.81,.76-2.77l-3.33-.53Zm-6.02-15.31c-.9-.34-1.85-.58-2.83-.74l-.55,3.25c.75,.12,1.49,.31,2.18,.57,.1,.04,.19,.08,.29,.11,.68,.27,1.33,.6,1.93,1l2.15-2.57c-.98-.66-2.05-1.21-3.18-1.63Zm-11.53,.45c-1.09,.51-2.12,1.14-3.04,1.88-.75,.61-1.45,1.29-2.07,2.03l2.61,2.09c.48-.57,1.01-1.09,1.6-1.56,.15-.12,.31-.24,.47-.36,.03-.02,.06-.04,.09-.06,.15-.11,.3-.21,.45-.3,.09-.06,.18-.11,.26-.17,.18-.11,.36-.21,.55-.3,.09-.05,.19-.1,.28-.14l-1.2-3.1Z"/></g><path class="cls-1" d="M94.4,58.9c-1.25,.87-2.64,1.53-4.12,1.96-1.06,3.38-3.38,6.3-6.57,8.1-2.2,1.25-4.69,1.9-7.21,1.9-1.14,0-2.24-.14-3.3-.38-2.65,2.42-6.15,3.81-9.85,3.81s-7.2-1.4-9.85-3.81c-1.06,.24-2.16,.38-3.3,.38-2.51,0-5-.66-7.21-1.9-3.19-1.8-5.51-4.72-6.57-8.1-1.48-.43-2.87-1.09-4.12-1.95v49.16c0,2.56,2.13,4.65,4.77,4.65h52.58c2.63,0,4.75-2.09,4.75-4.65V58.9Zm-17.66,20.16h4.12l4.48,8.05h.19l-.27-1.65v-6.4h3.38v12.8h-4.11l-4.48-8.04h-.19l.27,1.64v6.4h-3.38v-12.8Zm-17.46,0h3.38v7.59c0,.77,.22,1.37,.64,1.81,.43,.44,1.01,.66,1.74,.66s1.31-.22,1.74-.66c.42-.44,.64-1.04,.64-1.81v-7.59h3.38v7.68c0,1.09-.23,2.06-.7,2.88-.46,.82-1.13,1.46-2,1.92-.87,.45-1.89,.69-3.06,.69s-2.19-.23-3.07-.69c-.87-.46-1.54-1.1-2-1.92-.46-.82-.69-1.79-.69-2.88v-7.68Zm-21.21,0h4.76l2.65,6.58h.45l2.65-6.58h4.75v12.8h-3.38v-7.31l.27-1.64h-.18l-2.47,6.04h-3.75l-2.47-6.04h-.18l.27,1.64v7.31h-3.39v-12.8Zm55.1,29.01c0,1.89-1.58,3.44-3.53,3.44H37.07c-1.95,0-3.53-1.54-3.53-3.44v-11.84h59.63v11.84Z"/><g><path class="cls-1" d="M38.07,108.57l2.34-8.84h3.98l2.34,8.84h-1.96l-.51-1.96h-3.72l-.51,1.96h-1.96Zm2.9-3.72h2.84l-.88-3.35h-1.07l-.88,3.35Z"/><path class="cls-1" d="M50.13,108.57v-8.84h1.89v7.07h4.36v1.77h-6.25Z"/><path class="cls-1" d="M59.85,108.57v-8.84h6.63v1.77h-4.73v1.77h3.79v1.64h-3.79v1.89h4.73v1.77h-6.63Z"/><path class="cls-1" d="M70.33,108.57v-8.84h4.17c.7,0,1.31,.13,1.84,.39,.53,.26,.93,.62,1.21,1.07,.28,.45,.42,.96,.42,1.5,0,.66-.19,1.21-.56,1.67-.37,.46-.86,.81-1.46,1.04l2.02,3.16h-2.15l-1.83-2.9h-1.77v2.9h-1.89Zm4.1-4.67c.52,0,.92-.11,1.18-.33,.27-.22,.4-.51,.4-.87s-.13-.65-.4-.87c-.27-.22-.66-.33-1.18-.33h-2.21v2.4h2.21Z"/><path class="cls-1" d="M83.9,108.57v-7.07h-2.84v-1.77h7.57v1.77h-2.84v7.07h-1.89Z"/></g></g><g><path class="cls-1" d="M156.79,93.06h-1.95v-11.57h3.05l3.49,7.27,3.49-7.27h3.03v11.57h-1.95v-9.04l-4.04,8.03h-1.09l-4.02-8.03v9.04Z"/><path class="cls-1" d="M172.61,82.5c-.23-.23-.35-.51-.35-.83s.12-.6,.35-.83c.23-.23,.51-.35,.83-.35s.6,.12,.83,.35,.35,.51,.35,.83-.12,.6-.35,.83c-.23,.23-.51,.35-.83,.35s-.6-.12-.83-.35Zm1.74,10.56h-1.85v-8.81h1.85v8.81Z"/><path class="cls-1" d="M184.96,90.43c0,.84-.3,1.51-.91,2.01-.61,.5-1.38,.75-2.33,.75-.64,0-1.31-.12-1.99-.35-.69-.23-1.3-.56-1.83-.98l.89-1.44c1.03,.77,2.02,1.16,2.98,1.16,.42,0,.75-.1,.99-.29,.24-.19,.36-.44,.36-.74,0-.44-.58-.84-1.75-1.19-.09-.03-.15-.06-.2-.07-1.83-.5-2.75-1.32-2.75-2.48,0-.82,.32-1.47,.95-1.96,.63-.49,1.46-.74,2.47-.74s1.98,.3,2.88,.89l-.7,1.37c-.72-.47-1.5-.71-2.33-.71-.44,0-.8,.08-1.08,.24-.28,.16-.41,.4-.41,.72,0,.29,.14,.5,.43,.63,.2,.1,.48,.19,.84,.28,.36,.09,.68,.18,.95,.26,.28,.09,.54,.19,.8,.3,.26,.11,.54,.26,.84,.46,.6,.4,.89,1.02,.89,1.85Z"/><path class="cls-1" d="M194.99,90.43c0,.84-.3,1.51-.91,2.01-.61,.5-1.38,.75-2.33,.75-.64,0-1.31-.12-1.99-.35-.69-.23-1.3-.56-1.83-.98l.89-1.44c1.03,.77,2.02,1.16,2.98,1.16,.42,0,.75-.1,.99-.29,.24-.19,.36-.44,.36-.74,0-.44-.58-.84-1.75-1.19-.09-.03-.15-.06-.2-.07-1.83-.5-2.75-1.32-2.75-2.48,0-.82,.32-1.47,.95-1.96,.63-.49,1.46-.74,2.47-.74s1.98,.3,2.88,.89l-.7,1.37c-.72-.47-1.5-.71-2.33-.71-.44,0-.8,.08-1.08,.24-.28,.16-.41,.4-.41,.72,0,.29,.14,.5,.43,.63,.2,.1,.48,.19,.84,.28,.36,.09,.68,.18,.95,.26,.28,.09,.54,.19,.8,.3,.26,.11,.54,.26,.84,.46,.6,.4,.89,1.02,.89,1.85Z"/><path class="cls-1" d="M198.86,82.5c-.23-.23-.35-.51-.35-.83s.12-.6,.35-.83c.23-.23,.51-.35,.83-.35s.6,.12,.83,.35,.35,.51,.35,.83-.12,.6-.35,.83c-.23,.23-.51,.35-.83,.35s-.6-.12-.83-.35Zm1.74,10.56h-1.85v-8.81h1.85v8.81Z"/><path class="cls-1" d="M206.79,88.3v4.77h-1.85v-8.81h1.85v1.61c.3-.54,.71-.97,1.23-1.27,.52-.31,1.09-.46,1.7-.46,.99,0,1.8,.3,2.41,.91,.61,.61,.92,1.48,.92,2.63v5.4h-1.85v-4.83c0-1.62-.67-2.43-2.02-2.43-.64,0-1.2,.21-1.67,.64-.47,.42-.71,1.05-.71,1.86Z"/><path class="cls-1" d="M225.43,84.26v7.68c0,1.56-.42,2.72-1.27,3.5-.84,.78-1.93,1.17-3.25,1.17s-2.52-.41-3.59-1.24l.88-1.41c.86,.65,1.73,.98,2.61,.98s1.57-.23,2.09-.68c.51-.45,.77-1.18,.77-2.17v-1.13c-.28,.52-.67,.93-1.18,1.24-.51,.31-1.09,.46-1.73,.46-1.17,0-2.13-.41-2.88-1.23-.75-.82-1.13-1.83-1.13-3.05s.38-2.23,1.13-3.05c.75-.82,1.71-1.22,2.87-1.22s2.11,.48,2.84,1.44v-1.31h1.85Zm-6.87,4.06c0,.72,.22,1.35,.67,1.87,.45,.52,1.05,.79,1.8,.79s1.37-.25,1.84-.76c.47-.51,.7-1.14,.7-1.9s-.24-1.4-.71-1.92c-.47-.52-1.09-.79-1.84-.79s-1.35,.27-1.8,.81c-.45,.54-.67,1.17-.67,1.9Z"/><path class="cls-1" d="M238.82,90.42c.53,.62,1.25,.93,2.15,.93s1.62-.31,2.15-.93c.53-.62,.79-1.46,.79-2.52v-6.41h1.95v6.49c0,1.67-.46,2.95-1.37,3.85-.92,.9-2.09,1.35-3.53,1.35s-2.61-.45-3.53-1.35c-.92-.9-1.37-2.18-1.37-3.85v-6.49h1.95v6.41c0,1.06,.26,1.9,.79,2.52Z"/><path class="cls-1" d="M254.95,86c-.92,0-1.61,.3-2.07,.89-.46,.6-.7,1.4-.7,2.4v3.77h-1.85v-8.81h1.85v1.77c.3-.55,.7-1,1.22-1.36s1.06-.54,1.63-.55l.02,1.87h-.1Z"/><path class="cls-1" d="M266.7,84.26v7.68c0,1.56-.42,2.72-1.27,3.5-.84,.78-1.93,1.17-3.25,1.17s-2.52-.41-3.59-1.24l.88-1.41c.86,.65,1.73,.98,2.61,.98s1.57-.23,2.09-.68c.51-.45,.77-1.18,.77-2.17v-1.13c-.28,.52-.67,.93-1.18,1.24-.51,.31-1.09,.46-1.73,.46-1.17,0-2.13-.41-2.88-1.23-.75-.82-1.13-1.83-1.13-3.05s.38-2.23,1.13-3.05c.75-.82,1.71-1.22,2.87-1.22s2.11,.48,2.84,1.44v-1.31h1.85Zm-6.87,4.06c0,.72,.22,1.35,.67,1.87,.45,.52,1.05,.79,1.8,.79s1.37-.25,1.84-.76c.47-.51,.7-1.14,.7-1.9s-.24-1.4-.71-1.92c-.47-.52-1.09-.79-1.84-.79s-1.35,.27-1.8,.81c-.45,.54-.67,1.17-.67,1.9Z"/><path class="cls-1" d="M279.23,89.47h-6.9c.04,.64,.34,1.16,.88,1.55,.54,.39,1.16,.59,1.85,.59,1.1,0,1.94-.35,2.52-1.04l1.06,1.16c-.95,.98-2.19,1.47-3.71,1.47-1.24,0-2.29-.41-3.15-1.23-.87-.82-1.3-1.93-1.3-3.31s.44-2.49,1.32-3.3c.88-.82,1.92-1.22,3.12-1.22s2.22,.36,3.05,1.08c.84,.72,1.26,1.72,1.26,2.99v1.27Zm-6.9-1.46h5.05c0-.74-.23-1.31-.7-1.7-.46-.4-1.03-.6-1.71-.6s-1.29,.21-1.83,.62c-.54,.41-.81,.97-.81,1.68Z"/><path class="cls-1" d="M284.77,88.3v4.77h-1.85v-8.81h1.85v1.61c.3-.54,.71-.97,1.23-1.27,.52-.31,1.09-.46,1.7-.46,.99,0,1.8,.3,2.41,.91s.92,1.48,.92,2.63v5.4h-1.85v-4.83c0-1.62-.67-2.43-2.02-2.43-.64,0-1.2,.21-1.67,.64-.47,.42-.71,1.05-.71,1.86Z"/><path class="cls-1" d="M297.44,85.75v4.47c0,.42,.11,.75,.33,1,.22,.25,.53,.37,.93,.37s.78-.19,1.14-.58l.76,1.31c-.65,.59-1.37,.88-2.16,.88s-1.46-.27-2.02-.82c-.56-.55-.84-1.28-.84-2.21v-4.42h-1.11v-1.49h1.11v-2.76h1.85v2.76h2.32v1.49h-2.32Z"/><path class="cls-1" d="M318.86,81.49h1.95v11.57h-2.12l-6.55-8.44v8.44h-1.95v-11.57h1.95l6.72,8.64v-8.64Z"/><path class="cls-1" d="M332.78,91.88c-.88,.88-1.99,1.32-3.31,1.32s-2.43-.44-3.31-1.32c-.88-.88-1.32-1.95-1.32-3.22s.44-2.34,1.32-3.22c.88-.88,1.99-1.32,3.31-1.32s2.43,.44,3.31,1.32c.88,.88,1.32,1.95,1.32,3.22s-.44,2.34-1.32,3.22Zm-5.31-1.14c.52,.54,1.19,.8,1.99,.8s1.47-.27,1.99-.8c.52-.54,.79-1.23,.79-2.08s-.26-1.54-.79-2.08c-.52-.53-1.19-.8-1.99-.8s-1.47,.27-1.99,.8c-.52,.54-.79,1.23-.79,2.08s.26,1.54,.79,2.08Z"/><path class="cls-1" d="M340.01,85.75v4.47c0,.42,.11,.75,.33,1,.22,.25,.53,.37,.93,.37s.78-.19,1.14-.58l.76,1.31c-.65,.59-1.37,.88-2.16,.88s-1.46-.27-2.02-.82c-.56-.55-.84-1.28-.84-2.21v-4.42h-1.11v-1.49h1.11v-2.76h1.85v2.76h2.32v1.49h-2.32Z"/><path class="cls-1" d="M346.42,82.5c-.23-.23-.35-.51-.35-.83s.12-.6,.35-.83c.23-.23,.51-.35,.83-.35s.6,.12,.83,.35c.23,.23,.35,.51,.35,.83s-.12,.6-.35,.83c-.23,.23-.51,.35-.83,.35s-.6-.12-.83-.35Zm1.74,10.56h-1.85v-8.81h1.85v8.81Z"/><path class="cls-1" d="M354.78,83.53v.73h2.32v1.49h-2.32v7.32h-1.85v-7.32h-1.11v-1.49h1.11v-.68c0-.93,.28-1.66,.84-2.21,.56-.55,1.23-.82,2.02-.82s1.51,.29,2.16,.88l-.76,1.31c-.36-.39-.74-.58-1.14-.58s-.71,.12-.93,.37c-.22,.25-.33,.58-.33,1Z"/><path class="cls-1" d="M360.65,82.5c-.23-.23-.35-.51-.35-.83s.12-.6,.35-.83c.23-.23,.51-.35,.83-.35s.6,.12,.83,.35,.35,.51,.35,.83-.12,.6-.35,.83c-.23,.23-.51,.35-.83,.35s-.6-.12-.83-.35Zm1.74,10.56h-1.85v-8.81h1.85v8.81Z"/><path class="cls-1" d="M370.63,93.2c-1.23,0-2.28-.42-3.16-1.25-.88-.83-1.32-1.92-1.32-3.27s.46-2.44,1.38-3.29c.92-.84,2.04-1.27,3.37-1.27s2.44,.46,3.36,1.37l-1.09,1.34c-.76-.66-1.53-.99-2.3-.99s-1.44,.26-2.01,.77c-.57,.51-.85,1.18-.85,1.99s.28,1.5,.84,2.06,1.26,.84,2.08,.84,1.6-.38,2.33-1.13l1.09,1.19c-1.07,1.08-2.31,1.62-3.71,1.62Z"/><path class="cls-1" d="M384.99,93.06h-1.69v-1.18c-.73,.87-1.7,1.31-2.93,1.31-.92,0-1.67-.26-2.28-.78-.6-.52-.9-1.21-.9-2.08s.32-1.51,.96-1.94c.64-.43,1.51-.65,2.6-.65h2.4v-.33c0-1.17-.65-1.75-1.95-1.75-.82,0-1.67,.3-2.55,.89l-.83-1.16c1.07-.85,2.28-1.27,3.64-1.27,1.04,0,1.88,.26,2.54,.79,.66,.52,.99,1.35,.99,2.47v5.68Zm-1.85-3.28v-.74h-2.09c-1.34,0-2,.42-2,1.26,0,.43,.17,.76,.5,.98,.33,.23,.79,.34,1.38,.34s1.11-.17,1.55-.5c.44-.33,.66-.78,.66-1.34Z"/><path class="cls-1" d="M391.41,85.75v4.47c0,.42,.11,.75,.33,1,.22,.25,.53,.37,.93,.37s.78-.19,1.14-.58l.76,1.31c-.65,.59-1.37,.88-2.16,.88s-1.46-.27-2.02-.82c-.56-.55-.84-1.28-.84-2.21v-4.42h-1.11v-1.49h1.11v-2.76h1.85v2.76h2.32v1.49h-2.32Z"/><path class="cls-1" d="M397.81,82.5c-.23-.23-.35-.51-.35-.83s.12-.6,.35-.83c.23-.23,.51-.35,.83-.35s.6,.12,.83,.35,.35,.51,.35,.83-.12,.6-.35,.83c-.23,.23-.51,.35-.83,.35s-.6-.12-.83-.35Zm1.74,10.56h-1.85v-8.81h1.85v8.81Z"/><path class="cls-1" d="M411.25,91.88c-.88,.88-1.99,1.32-3.31,1.32s-2.43-.44-3.31-1.32c-.88-.88-1.32-1.95-1.32-3.22s.44-2.34,1.32-3.22c.88-.88,1.99-1.32,3.31-1.32s2.43,.44,3.31,1.32c.88,.88,1.32,1.95,1.32,3.22s-.44,2.34-1.32,3.22Zm-5.31-1.14c.52,.54,1.19,.8,1.99,.8s1.47-.27,1.99-.8c.52-.54,.79-1.23,.79-2.08s-.26-1.54-.79-2.08c-.52-.53-1.19-.8-1.99-.8s-1.47,.27-1.99,.8c-.52,.54-.79,1.23-.79,2.08s.26,1.54,.79,2.08Z"/><path class="cls-1" d="M418.19,88.3v4.77h-1.85v-8.81h1.85v1.61c.3-.54,.71-.97,1.23-1.27,.52-.31,1.09-.46,1.7-.46,.99,0,1.8,.3,2.41,.91s.92,1.48,.92,2.63v5.4h-1.85v-4.83c0-1.62-.67-2.43-2.02-2.43-.64,0-1.2,.21-1.67,.64s-.71,1.05-.71,1.86Z"/></g></svg>