<?xml version="1.0" encoding="UTF-8"?><svg id="Layer_1" xmlns="http://www.w3.org/2000/svg" xmlns:xlink="http://www.w3.org/1999/xlink" viewBox="0 0 500 500"><defs><style>.cls-1{fill:url(#linear-gradient-2);}.cls-2{fill:#fff;}.cls-3{fill:url(#linear-gradient-17);}.cls-4{fill:url(#linear-gradient-15);}.cls-5{fill:url(#linear-gradient-18);}.cls-6{fill:url(#linear-gradient-14);}.cls-7{fill:url(#linear-gradient-20);}.cls-8{fill:url(#linear-gradient-6);}.cls-9{fill:url(#linear-gradient-11);}.cls-10{fill:url(#linear-gradient-10);}.cls-11{fill:url(#linear-gradient-16);}.cls-12{fill:#de1175;}.cls-13{fill:url(#linear-gradient-21);}.cls-14{fill:url(#linear-gradient-25);}.cls-15{fill:url(#linear-gradient-5);}.cls-16{fill:url(#linear-gradient-7);}.cls-17{fill:url(#linear-gradient-24);}.cls-18{fill:url(#linear-gradient-9);}.cls-19{fill:url(#linear-gradient-22);}.cls-20{fill:url(#linear-gradient-3);}.cls-21{fill:#123557;}.cls-22{fill:url(#linear-gradient);}.cls-23{fill:url(#linear-gradient-23);}.cls-24{fill:url(#linear-gradient-19);}.cls-25{fill:url(#linear-gradient-4);}.cls-26{fill:url(#linear-gradient-8);}.cls-27{fill:url(#linear-gradient-12);}.cls-28{fill:url(#linear-gradient-13);}</style><linearGradient id="linear-gradient" x1="446.15" y1="651.06" x2="194.22" y2="136.7" gradientTransform="matrix(1, 0, 0, 1, 0, 0)" gradientUnits="userSpaceOnUse"><stop offset="0" stop-color="#de1175"/><stop offset="1" stop-color="#fff"/></linearGradient><linearGradient id="linear-gradient-2" x1="407.97" y1="669.76" x2="156.03" y2="155.4" xlink:href="#linear-gradient"/><linearGradient id="linear-gradient-3" x1="385.65" y1="680.69" x2="133.72" y2="166.33" xlink:href="#linear-gradient"/><linearGradient id="linear-gradient-4" x1="374.03" y1="686.38" x2="122.1" y2="172.02" xlink:href="#linear-gradient"/><linearGradient id="linear-gradient-5" x1="377.92" y1="684.48" x2="125.99" y2="170.11" xlink:href="#linear-gradient"/><linearGradient id="linear-gradient-6" x1="395.95" y1="675.65" x2="144.01" y2="161.29" xlink:href="#linear-gradient"/><linearGradient id="linear-gradient-7" x1="429.01" y1="659.45" x2="177.08" y2="145.09" xlink:href="#linear-gradient"/><linearGradient id="linear-gradient-8" x1="467.19" y1="640.75" x2="215.26" y2="126.39" xlink:href="#linear-gradient"/><linearGradient id="linear-gradient-9" x1="489.51" y1="629.82" x2="237.58" y2="115.46" xlink:href="#linear-gradient"/><linearGradient id="linear-gradient-10" x1="479.21" y1="634.86" x2="227.28" y2="120.5" xlink:href="#linear-gradient"/><linearGradient id="linear-gradient-11" x1="501.13" y1="624.13" x2="249.2" y2="109.77" xlink:href="#linear-gradient"/><linearGradient id="linear-gradient-12" x1="497.23" y1="626.04" x2="245.3" y2="111.68" xlink:href="#linear-gradient"/><linearGradient id="linear-gradient-13" x1="271.99" y1="510.12" x2="119.92" y2="261.93" gradientTransform="translate(11.27 10.93) rotate(1.72)" xlink:href="#linear-gradient"/><linearGradient id="linear-gradient-14" x1="276.09" y1="507.6" x2="124.03" y2="259.41" gradientTransform="translate(11.27 10.93) rotate(1.72)" xlink:href="#linear-gradient"/><linearGradient id="linear-gradient-15" x1="311.72" y1="485.78" x2="159.65" y2="237.59" gradientTransform="translate(11.27 10.93) rotate(1.72)" xlink:href="#linear-gradient"/><linearGradient id="linear-gradient-16" x1="334.84" y1="471.61" x2="182.78" y2="223.42" gradientTransform="translate(11.27 10.93) rotate(1.72)" xlink:href="#linear-gradient"/><linearGradient id="linear-gradient-17" x1="377.29" y1="445.6" x2="225.22" y2="197.41" gradientTransform="translate(11.27 10.93) rotate(1.72)" xlink:href="#linear-gradient"/><linearGradient id="linear-gradient-18" x1="368.15" y1="451.2" x2="216.08" y2="203.01" gradientTransform="translate(11.27 10.93) rotate(1.72)" xlink:href="#linear-gradient"/><linearGradient id="linear-gradient-19" x1="377.22" y1="445.64" x2="225.16" y2="197.45" gradientTransform="translate(11.27 10.93) rotate(1.72)" xlink:href="#linear-gradient"/><linearGradient id="linear-gradient-20" x1="394.3" y1="435.18" x2="242.23" y2="186.99" gradientTransform="translate(11.27 10.93) rotate(1.72)" xlink:href="#linear-gradient"/><linearGradient id="linear-gradient-21" x1="135.69" y1="73.67" x2="294.06" y2="344.71" gradientTransform="translate(11.27 10.93) rotate(1.72)" xlink:href="#linear-gradient"/><linearGradient id="linear-gradient-22" x1="170.98" y1="53.05" x2="329.35" y2="324.09" gradientTransform="translate(11.27 10.93) rotate(1.72)" xlink:href="#linear-gradient"/><linearGradient id="linear-gradient-23" x1="223.93" y1="22.11" x2="382.3" y2="293.15" gradientTransform="translate(11.27 10.93) rotate(1.72)" xlink:href="#linear-gradient"/><linearGradient id="linear-gradient-24" x1="257.51" y1="2.49" x2="415.88" y2="273.53" gradientTransform="translate(11.27 10.93) rotate(1.72)" xlink:href="#linear-gradient"/><linearGradient id="linear-gradient-25" x1="284.83" y1="-13.47" x2="443.2" y2="257.57" gradientTransform="translate(11.27 10.93) rotate(1.72)" xlink:href="#linear-gradient"/></defs><g><path class="cls-12" d="M335.38,188.56c0-11.04-4.56-21.34-12.35-28.79,1.01-3.54,1.53-7.2,1.53-10.84,0-7.02-1.92-13.99-5.56-20.15-5.68-9.62-14.8-16.25-25.4-18.8-2.69-10.47-9.47-19.33-19.22-24.83-6.2-3.5-13.21-5.35-20.27-5.35-3.84,0-7.63,.53-11.29,1.57-7.62-7.77-17.99-12.15-29.24-12.15s-21.72,4.51-29.29,12.19c-3.65-1.04-7.4-1.61-11.24-1.61-7.05,0-14.06,1.85-20.27,5.35-9.72,5.49-16.53,14.5-19.22,24.84-10.68,2.58-19.75,9.2-25.41,18.8-5.63,9.53-6.94,20.68-4.02,30.97-7.91,7.51-12.35,17.71-12.35,28.81s4.56,21.34,12.35,28.79c-1,3.53-1.53,7.19-1.53,10.83,0,7.04,1.92,14.01,5.56,20.15,5.68,9.63,14.8,16.25,25.4,18.81,2.69,10.48,9.46,19.33,19.23,24.84,6.2,3.5,13.21,5.35,20.27,5.35,3.83,0,7.63-.53,11.29-1.57,7.63,7.77,18,12.15,29.25,12.15s21.72-4.51,29.29-12.19c3.65,1.04,7.4,1.61,11.24,1.61,7.05,0,14.05-1.85,20.27-5.35,9.73-5.49,16.54-14.51,19.24-24.86,10.68-2.58,19.73-9.21,25.39-18.79,5.64-9.54,6.96-20.69,4.04-30.98,7.9-7.51,12.34-17.7,12.34-28.8Z"/><g><path class="cls-22" d="M262.51,278.72c-4.57,2.58-9.46,3.77-14.26,3.77-4.15,0-8.21-.89-11.91-2.55,4.35-8.04,4.95-17.54,1.66-26.07l-10.22-26.41-3.81-9.86c1.16-.57,2.26-1.18,3.34-1.87,.15-.09,.29-.18,.43-.28,.33-.2,.65-.43,.97-.65,.21-.14,.41-.28,.62-.43,.45-.33,.89-.67,1.33-1.02,1.87-1.48,3.57-3.14,5.09-4.96l8.31,6.65,22.28,17.83c6.76,5.42,10.2,12.98,10.47,20.61,.36,9.83-4.52,19.75-14.29,25.26Z"/><path class="cls-1" d="M233,278.19c-4.71,8.68-14.02,14.88-25.28,14.88-9.83,0-18.17-4.72-23.27-11.7,7.98-4.88,13.19-12.6,14.74-21.73l4.66-27.77,.03-.18,1.75-10.4c.06,0,.13,.01,.18,.01,.24,.01,.48,.03,.7,.03,.4,.01,.82,.03,1.22,.03,2,0,3.95-.16,5.86-.48,2.4-.36,4.72-.98,6.95-1.8l3.79,9.81,10.17,26.32c3.09,7.99,2.19,16.23-1.48,22.97Z"/><path class="cls-20" d="M201.86,220.88l-1.73,10.37-4.66,27.77c-1.42,8.44-6.41,15.13-13.03,19.17-8.53,5.21-19.76,6.03-29.52,.53-8.51-4.8-13.31-12.95-14.16-21.49h.01c9.4-.31,17.87-4.42,23.85-11.56l18.38-21.95,6.85-8.18c1.82,1.19,3.76,2.21,5.79,3.04,.43,.18,.84,.34,1.27,.5,2.22,.82,4.55,1.43,6.95,1.8Z"/><path class="cls-25" d="M184.77,213.34l-6.81,8.13-18.23,21.78c-5.54,6.61-13.28,9.95-21.08,10.22-10.05,.36-20.2-4.42-25.83-13.96-2.64-4.46-3.86-9.25-3.86-13.93,0-4.03,.9-7.99,2.59-11.6l.08,.04c4.65,2.43,9.86,3.71,15.09,3.71,3.88,0,7.74-.69,11.45-2.06l27.12-10.01,10.1-3.73c.21,.43,.44,.84,.68,1.26,.19,.34,.39,.68,.59,1,.9,1.48,1.92,2.89,3.04,4.21,1.52,1.82,3.22,3.48,5.09,4.96Z"/><path class="cls-15" d="M173.81,198.47l-10.04,3.71-26.93,9.94c-8.18,3.02-16.61,2.14-23.5-1.45-8.88-4.61-15.22-13.71-15.22-24.72,0-9.62,4.84-17.78,11.99-22.77,.01,.02,.04,.06,.05,.09,4.93,7.7,13.02,12.95,22.19,14.44l28.55,4.57,10.63,1.7c-.03,.28-.04,.57-.04,.84-.03,.38-.03,.75-.03,1.13,0,1.95,.16,3.87,.48,5.73,.39,2.35,1.02,4.62,1.86,6.79Z"/><path class="cls-8" d="M177.42,166.52s-.04,.05-.05,.08c-.35,.52-.68,1.03-.99,1.57-.28,.47-.55,.94-.8,1.42-.13,.24-.25,.48-.38,.73-.15,.29-.3,.6-.43,.9-.13,.23-.23,.45-.31,.69-.24,.5-.44,1.01-.64,1.52-.84,2.16-1.47,4.44-1.86,6.79l-10.59-1.7-28.4-4.55c-8.63-1.38-15.48-6.27-19.61-12.74-5.33-8.34-6.17-19.31-.54-28.85,4.93-8.34,13.31-13.04,22.06-13.86v.02c.31,9.12,4.65,17.67,11.87,23.42l22.33,17.87,8.34,6.68Z"/><path class="cls-16" d="M191.46,154.3c-.3,.14-.59,.29-.89,.45-.58,.3-1.16,.63-1.73,.97-.28,.18-.57,.35-.84,.53-.49,.3-.98,.63-1.45,.97-.09,.06-.19,.13-.28,.19-.52,.38-1.01,.75-1.5,1.14-1.87,1.48-3.57,3.14-5.09,4.96l-8.31-6.65-22.28-17.83c-6.77-5.4-10.19-12.98-10.45-20.61-.36-9.83,4.52-19.74,14.27-25.24,4.57-2.58,9.47-3.77,14.26-3.77,4.15,0,8.21,.89,11.91,2.55-4.35,8.03-4.95,17.53-1.66,26.07l10.2,26.4,3.82,9.86Z"/><path class="cls-26" d="M230.97,90.53c-7.95,4.89-13.19,12.59-14.73,21.73l-4.66,27.77-.03,.16-1.75,10.4v.03c-.33-.01-.65-.04-.98-.05-.19,0-.38-.01-.55-.03-.19-.01-.38-.01-.57-.01-2,0-3.95,.15-5.86,.47-2.4,.38-4.72,.99-6.95,1.81l-3.79-9.81-10.17-26.31c-3.09-7.99-2.19-16.23,1.48-22.97,4.71-8.68,14.02-14.88,25.28-14.88,9.83,0,18.17,4.72,23.26,11.7Z"/><path class="cls-18" d="M276.67,114.66c-9.4,.33-17.87,4.44-23.86,11.58l-18.37,21.94-6.85,8.17h-.01c-1.94-1.23-3.97-2.31-6.13-3.18-.31-.13-.62-.25-.93-.36-2.22-.82-4.55-1.43-6.95-1.81l1.73-10.35,4.66-27.77c1.42-8.43,6.41-15.12,13.03-19.16,8.53-5.21,19.76-6.03,29.52-.53,8.51,4.8,13.31,12.95,14.16,21.47Z"/><path class="cls-10" d="M302.62,239.5c-4.93,8.34-13.31,13.04-22.05,13.86v-.02c-.31-9.09-4.65-17.63-11.87-23.42l-22.34-17.88-8.34-6.67c.7-1.03,1.34-2.1,1.92-3.2,.08-.13,.15-.26,.2-.4,.2-.36,.39-.74,.55-1.12,.11-.21,.2-.43,.29-.65,.24-.5,.44-1,.64-1.52,.84-2.16,1.47-4.44,1.86-6.79l10.59,1.7,28.4,4.55c8.63,1.38,15.48,6.27,19.61,12.74,5.34,8.33,6.17,19.31,.54,28.84Z"/><path class="cls-9" d="M306.48,146.32c0,4.03-.9,7.99-2.59,11.61l-.08-.04c-4.65-2.42-9.88-3.71-15.09-3.71-3.9,0-7.74,.7-11.45,2.07l-27.12,10.01-10.1,3.72h-.01c-.6-1.16-1.26-2.27-1.97-3.35-.31-.5-.67-.99-1.04-1.48-.04-.06-.08-.14-.15-.2-.35-.49-.74-.97-1.13-1.44-1.52-1.82-3.22-3.48-5.09-4.96l6.81-8.13,18.23-21.76c5.54-6.61,13.29-9.96,21.1-10.23,10.04-.35,20.19,4.42,25.82,13.96,2.64,4.47,3.86,9.25,3.86,13.93Z"/><path class="cls-27" d="M317.29,185.95c0,9.63-4.84,17.78-11.99,22.77l-.05-.08c-4.93-7.7-13.02-12.97-22.2-14.44l-28.54-4.57-10.63-1.7c.03-.29,.04-.57,.04-.85,.03-.38,.03-.75,.03-1.13,0-1.95-.16-3.87-.48-5.73-.39-2.35-1.02-4.62-1.86-6.79l10.04-3.71,26.93-9.94c8.18-3.03,16.61-2.14,23.5,1.44,8.88,4.61,15.22,13.71,15.22,24.72Z"/></g><path class="cls-2" d="M233.52,185.95c0,13.92-11.56,25.22-25.81,25.22s-25.81-11.3-25.81-25.22,11.56-25.23,25.81-25.23,25.81,11.3,25.81,25.23Z"/></g><g><g><path class="cls-21" d="M403.74,225.21v6.78c0,6.59,2.91,10.76,5.35,13.09,3.37,3.23,7.77,4.94,12.72,4.94,1.73,0,3.41-.2,5.01-.6v.21l47.42,4.53v-21.08l-1.41-.97c.93-2.11,1.38-4.45,1.49-6.91h2.94v-21.67c0-2.19-1.77-3.96-3.96-3.96h-1.09s-.67-2.51-2.66-3.61c-6.12-3.39-17.2,3.72-21.86-.71l-1.7,4.54-42.26-.22v25.64Z"/><g><path class="cls-2" d="M468.38,223.51c0-2.27-.8-4.19-2.39-5.76-1.59-1.56-3.69-2.34-6.3-2.34-2.46,0-4.42,.67-5.89,2-1.47,1.33-2.21,3.03-2.21,5.1,0,1.06,.15,2.05,.46,2.95h4.87c-.21-.72-.32-1.53-.32-2.41,0-.97,.3-1.77,.89-2.39,.59-.63,1.37-.93,2.34-.93,1.06,0,1.89,.34,2.5,1,.61,.67,.91,1.59,.91,2.78,0,1.7-.55,3.03-1.64,3.98-1.09,.96-2.68,1.45-4.77,1.48h-4.32v4.23l8.64,6.05h7.05v-.55l-8.96-6.19c2.79-.37,5.01-1.32,6.67-2.87,1.65-1.55,2.48-3.6,2.48-6.14Z"/><path class="cls-2" d="M468.01,208.81c.15-.91,.23-1.69,.23-2.32,0-2.06-.59-3.69-1.75-4.89-1.17-1.19-2.89-1.8-5.16-1.8-1.03,0-2.31,.19-3.82,.57-1.52,.38-2.64,.57-3.37,.57-1.18,0-2.55-.68-2.55-.68l-.91,4c1.18,.64,2.49,.96,3.91,.96,.82,0,1.92-.15,3.3-.45,1.38-.3,2.36-.45,2.93-.45,.97,0,1.65,.24,2.02,.72,.38,.49,.57,1.2,.57,2.14,0,.54-.04,1.09-.14,1.64h-17.06v-3.68h-5.14v1c0,1.28,.15,2.76,.46,4.46-.58-1.18-1.46-1.77-2.64-1.77h-26.62v4.32h4.37v18.47c0,2.37,.71,4.23,2.14,5.6,1.42,1.37,3.28,2.05,5.55,2.05,3.16,0,5.83-1.29,8.01-3.89s3.28-5.44,3.28-8.53c0-2.48-.69-4.4-2.07-5.73-1.38-1.33-3.6-2.47-6.67-3.41l-4.96-1.54v-3h16.38c1.03,0,1.73,.23,2.09,.68,.36,.45,.54,1.27,.54,2.46v22.57h5.28v-25.7h25.16v-2.22c0-1.16-.94-2.1-2.1-2.1h-1.26Zm-42.08,13.74c1.64,.55,2.78,1.12,3.44,1.7,.65,.59,.98,1.45,.98,2.57,0,1.88-.59,3.66-1.77,5.34-1.18,1.69-2.58,2.53-4.19,2.53s-2.46-1.03-2.46-3.1v-10.42l4,1.37Z"/></g></g><path class="cls-21" d="M406.58,213.64c-.09,.98,1.86,3.11,1.86,4.12,0,1.94,.15,4.11,.69,6.48l1.81,35.03-19.77,2.35-7.46-26.58c-2.63,1.21-5.77-.47-9.81-.47-4.71,0-12.6-.21-12.6-.21h-30.86l-11.77-3.65-2.01,2.21-7.02,1.58c-1.01,.23-2.1,.32-3.63,.32-6.38,0-11.78-2.79-15.2-7.86-2.74-4.06-4.18-9.28-4.28-15.52-.04-3.32,.17-6.41,.64-9.19,.51-3.04,1.39-5.92,2.61-8.58,1.62-3.53,4.06-6.35,7.24-8.37,3.17-2.02,6.87-3.03,11-3.03h10.31c-.71-1.87-1.12-3.85-1.12-5.94v-3.55c0-3.01,2.44-5.44,5.44-5.44h4.57c.07-.07,.11-.15,.18-.22,2.24-2.23,5.18-3.45,8.31-3.45h.01c3.28,0,6.22,1.21,8.41,3.41,.08,.08,.14,.18,.21,.26h3.54c3.49,0,6.32,2.83,6.32,6.32v2.67c0,3.52-1.23,5.94-1.23,5.94h49.65c4.59,0,8.3,3.72,8.3,8.3v8.48s-4.66,3.75-4.36,14.58Z"/><g><path class="cls-2" d="M303.77,225.28c.83,0,1.41-.04,1.74-.11v-5.49c-.22,.04-.6,.06-1.14,.06-3.7,0-5.55-3.24-5.55-9.73,0-2.21,.08-4.14,.24-5.79,.16-1.65,.48-3.31,.95-4.97,.47-1.67,1.21-2.95,2.23-3.84,1.01-.89,2.26-1.33,3.75-1.33h.38c.14,2.18,.84,3.98,2.17,5.36,1.49,1.54,3.57,2.31,6.25,2.31,3.08,0,5.33-1.34,6.74-4.03v.38c0,2.69-.78,4.78-2.34,6.28-1.56,1.51-3.79,2.28-6.69,2.31h-4.73v5.28l23.98,12.83,.05-.06v.06h6.14v-30.72h5.06c1.23,0,2.07,.27,2.5,.81,.43,.55,.65,1.53,.65,2.94v26.97h6.31v-30.72h21.04c-2.5,2.43-3.75,5.42-3.75,8.97,0,2.75,.86,4.95,2.58,6.58,1.72,1.63,4.02,2.44,6.88,2.44,1.31,0,2.65-.18,4.02-.55,0,2.47-.7,4.41-2.09,5.85-1.4,1.43-3.38,2.15-5.95,2.15-3.12,0-5.55-1.23-7.29-3.7-1.74-2.46-2.61-5.84-2.61-10.11,0-.94,.02-1.67,.06-2.18h-6.25c-.04,.58-.06,1.41-.06,2.5,0,5.76,1.46,10.37,4.38,13.81,2.92,3.45,6.84,5.17,11.77,5.17,4.38,0,7.8-1.32,10.25-3.97,2.45-2.64,3.67-5.96,3.67-9.95,0-2.14-.34-4.08-1.03-5.82-2.32,1.05-4.62,1.58-6.9,1.58-3.26,0-4.89-1.41-4.89-4.24s1.38-5.29,4.13-7.51c1.12,2.43,2.93,4.52,5.41,6.28,2.48,1.76,5.26,3.11,8.35,4.05-1.05,3.15-1.58,6.65-1.58,10.49,0,2.98,.34,5.93,1.03,8.86h6.14c-.73-3.19-1.09-6.16-1.09-8.91,0-4.93,.78-9.53,2.34-13.81-7.14-1.66-11.98-4.33-14.52-7.99h18.21v-2.14c0-1.67-1.35-3.02-3.02-3.02h-49.23v-4.4h-6.14v1.2c0,1.53,.18,3.3,.54,5.33-.69-1.41-1.74-2.12-3.15-2.12h-5.76v-4.4h-6.14v34.2l-14.52-7.94c3.15-.66,5.65-2.08,7.5-4.27,1.85-2.19,2.77-4.99,2.77-8.4,0-2.53-.52-5.6-1.58-9.19h-5.98c.07,.55,.11,1.34,.11,2.39,0,3.52-1.29,5.27-3.86,5.27-1.12,0-2-.35-2.64-1.06-.64-.71-.95-1.7-.95-2.97,0-1.16,.18-2.37,.54-3.64h-7.34c-2.54,0-4.7,.57-6.5,1.71-1.79,1.14-3.16,2.74-4.1,4.78-.94,2.05-1.61,4.26-2.01,6.63-.4,2.38-.58,5.03-.54,7.97,.07,4.71,1.03,8.44,2.88,11.17,1.85,2.74,4.57,4.1,8.16,4.1Z"/><path class="cls-2" d="M335.03,175.2c.87,0,1.6-.28,2.17-.84,.58-.56,.87-1.26,.87-2.09s-.29-1.54-.87-2.12c-.58-.58-1.3-.85-2.17-.81-.8,0-1.48,.28-2.04,.84-.56,.56-.84,1.26-.84,2.09s.27,1.53,.82,2.09c.54,.56,1.23,.84,2.07,.84Z"/><path class="cls-2" d="M335.03,181.84c3.15,0,5.61-.85,7.37-2.56,1.76-1.71,2.64-3.73,2.64-6.09h-5c0,1.2-.37,2.23-1.11,3.1-.74,.87-2.04,1.3-3.89,1.3-1.7,0-2.96-.43-3.78-1.3-.82-.87-1.22-1.9-1.22-3.1h-5c0,2.36,.89,4.39,2.66,6.09,1.78,1.71,4.22,2.56,7.34,2.56Z"/></g></g><path class="cls-21" d="M161.42,350.12l29.02,16.41,12.49-2.79,19.14-18.39c.4-.08-1.57,13.2-1.02,13.07,2.84-.7,20.39-21.06,22.6-21.06,7.41,0,27.69,9.96,27.69,9.96l51.18,21.04h110.35l-.54,48.28c-.07,6.39-5.27,11.53-11.66,11.53h-16.93c-2.44,1.62-5.3,2.5-8.3,2.5s-5.86-.88-8.3-2.5h-122.35v-7.37c-1.91,.58-3.94,.87-6.05,.87-2.58,0-5.21-.45-7.81-1.34l-3.88-1.33v9.68h-66.03c-5.71,0-10.76-1.95-14.62-5.64-2.79-2.68-6.11-7.45-6.11-15.03l1.11-57.89Z"/><path class="cls-21" d="M163.08,404.45h-40.2c-.65,.97-1.38,1.9-2.25,2.73-3.1,3.03-7.22,4.7-11.58,4.7s-8.56-1.71-11.68-4.83c-.8-.8-1.51-1.68-2.12-2.61H59.22v-1.72l-8.44,1.87c-1.32,.29-2.72,.42-4.68,.42-8.23,0-15.19-3.61-19.63-10.16-3.49-5.17-5.32-11.77-5.44-19.64-.05-4.15,.22-7.99,.8-11.44,.64-3.81,1.64-7.5,3.29-10.79,5.98-11.96,17.17-16.39,17.17-16.39l23.98,.44,45.26-25.53,50.53,26.8,1.01,66.14Z"/><g><path class="cls-2" d="M328.24,373.01c-14.11-.42-27.13-6.01-36.65-15.72-.32-.33-.64-.66-.96-1.01l-52.33,3.77,1.26-10.42c-1.56,2.79-3.5,5.37-5.83,7.7-7.9,7.93-19.81,12.25-32.68,11.86-5.8-.17-11.56-1.26-17.11-3.23-14.48-5.14-26.53-15.55-33.93-29.33-.52-.97-1.02-1.96-1.49-2.96l-23.8-2.86c-2.26,.33-4.56,.47-6.86,.4-4.13-.12-8.23-.91-12.1-2.3l-1.06,13.55-41.23-1.24-2.72-67.27c-6.78-9.28-9.87-21.51-8.51-33.8,1.78-16.04,10.78-30.15,24.69-38.71,14.12-8.69,31.72-12.98,50.89-12.41,25.12,.75,50.14,10.06,66.93,24.9l3.82,3.38,7.62-10.77c3.04-10.98,13.26-18.32,25.17-17.96,8.09,.24,15.24,4.29,19.12,10.82,.36,.61,.7,1.25,1.01,1.92l32.34,17-1.85,6.17,14.5,.36,1.18,5.71,34.46-1.32,54.47,4.66,.92,2.71c.03,.1,2.67,7.56,8.3,12.22l-3.16-14.48,7.14,2.16c20.46,6.2,37.75,10.43,55.62,10.97,6.95,.21,14.01-.13,21.59-1.03l5.24-.62-1.18,17.67c-.39,5.83,.98,37.35,2.08,57.87l.77,14.49-29.68,3.34c-5.07,8.56-13.58,13.5-22.78,13.22-1.23-.04-2.47-.17-3.69-.39-4.33-.79-8.29-2.62-11.63-5.35l-22.72,14.05-8.39-11.56c-.73-1.01-3.99-5.7-6.94-13.04-2.82,1.28-5.81,2.24-8.94,2.87-.29,6.39-2.32,12.47-5.95,17.77-6.88,10.02-18.55,15.94-32.01,16.25-.97,.02-1.94,.01-2.91-.01Z"/><path class="cls-12" d="M479.29,331.96l-.55-10.36c-1.02-19.22-2.49-52.07-2.07-58.4l.83-12.41c-26.54,3.17-47.02-.41-78.99-10.09l3.46,15.86c-13.18-2.52-18.62-18.55-18.62-18.55l-51.34-4.39-37.9,1.45-1.22-5.94-16.76-.42,2.46-8.2-28.85-15.16-1.7-.93c-.37-.97-.81-1.91-1.34-2.79-3.11-5.23-8.9-8.48-15.48-8.67-10.08-.3-18.77,6.15-21,15.46l-10.9,15.41-7.48-6.61c-16.05-14.18-40.03-23.08-64.16-23.81-18.3-.55-35.06,3.52-48.46,11.76-12.75,7.85-21,20.77-22.63,35.46-1.31,11.78,1.83,23.31,8.47,31.77l2.61,64.55,32.98,.99,1.22-15.63c4.78,2.72,10.34,4.34,16.11,4.51,3.43,.1,6.81-.3,10.04-1.19l-.12,1.14,23.6,2.83c.72,1.69,1.51,3.34,2.37,4.94,6.88,12.81,18.08,22.5,31.54,27.27,5.12,1.82,10.43,2.82,15.77,2.98h0c11.67,.35,22.41-3.5,29.45-10.58,6.18-6.2,9.32-14.41,9.1-23.77l6.63-.53-3.06,25.35,49.19-3.54c.75,.89,1.51,1.71,2.25,2.47,8.73,8.9,20.68,14.02,33.65,14.41h0c.89,.03,1.79,.03,2.68,0,12.04-.27,22.42-5.5,28.49-14.35,3.87-5.64,5.61-12.18,5.15-19.03,5.8-.65,11.1-2.46,15.75-5.39,3.11,9.68,7.53,15.94,8.09,16.72l6,8.27,22.12-13.68c3.12,3.4,7.24,5.69,11.86,6.54,1.01,.18,2.03,.29,3.03,.32,7.6,.23,14.67-3.93,18.91-11.12,.35-.6,.68-1.21,.98-1.82l27.86-3.14Z"/><g><polygon class="cls-2" points="90.14 261.61 84.74 321.08 84.55 323.23 71.79 322.85 71.73 321.48 69.58 272.63 81.75 266.11 90.14 261.61"/><path class="cls-2" d="M180.98,222.57l-29.52,28.25s-17.36-21.34-46.53-21.53c-24.18-.18-29.69,22.17-14.79,32.32l-8.39,4.5-12.38,.29c-13.53-13.21-12.5-41.64,9.29-55.04,29.68-18.25,76.72-11.41,102.32,11.21Z"/><path class="cls-2" d="M148.27,313.9c.24,2.87,.46,4.52,.46,4.52l-13.51-1.62s.03-.22,.04-.64c.15-2.7,.34-13.57-5.68-19.73-6.94-7.12-14.06-2.36-14.06-2.36,8.73-2.05,20.49,12.26,9.39,18.5-11.08,6.23-25.98,1.86-31.26-8.24-3.41-6.53-4.28-26.12,15.79-26.73,16.54-.49,24.44,14.27,24.44,14.27l-1.09-24.64-33.06,2.4-.91-19.52,58.43,5.8c-10.73,18.82-9.8,47.08-8.98,57.98Z"/><path class="cls-2" d="M256.8,245.05l-2.69,25.69-4.99,47.51-16.5,1.31c-3.6-14.3-22.79-15.58-33.25-11.83l-2.88-6.82-4.58-10.81,22.49-12.55c-26.29,7.04-35.13-19.43-20.73-29.96,10.8-7.91,30.88,.53,28.11,12.93-1.6,7.08-10.45,9.48-14.45,7,0,0-.01,4.03,4.61,4.78,6.66,1.12,12.31-4.74,12.31-4.74l4.77,11.96-11.15,10.67c2.18-.66,4.21-.95,6.06-1.01,7.36-.31,11.97,3.07,11.97,3.07l-.42-9.3-1.49-32.35c8.45-.14,15.93-2.23,22.81-5.56Z"/><polygon class="cls-2" points="303.83 258.78 282.99 255.12 284.96 321.59 285.55 341.5 269.67 342.66 254.23 343.75 264.01 262.85 264.01 262.82 267.12 237.04 283.06 237.43 284.1 242.48 284.45 244.14 316.46 242.9 303.83 258.78"/><path class="cls-2" d="M264.13,223.17s-4.62,15.46-25.36,17.79c-22.54,2.54-31.7-15.87-31.7-15.87l6-8.49c2.71,5.01,10.65,11.61,20.76,9.18,9.07-2.17,8.89-13.86,8.89-13.86l21.4,11.25Z"/><path class="cls-2" d="M225.49,219.37c-5.38-1-8.17-6.34-7.19-11.33,1.61-8.25,13.41-9.94,16.85-4.18,3.41,5.76-1.68,16.96-9.66,15.51Z"/><path class="cls-2" d="M432.08,337.21c-6.5-1.19-9.85-7.65-8.68-13.64,1.95-9.95,16.2-11.99,20.33-5.05,4.13,6.95-2.02,20.45-11.65,18.69Z"/><path class="cls-2" d="M185.66,352.08c-13.96-4.95-27.99-17.59-31.9-39.27-1.66-9.16-1.51-19.96,1.24-32.47,7.11-32.38,35.32-49.09,35.32-49.09l8.65,6.55c-18.22,11.09-25.39,29.1-25.84,46.98-.18,7.59,1.78,15.39,4.77,22.11,3.57,8.01,8.59,14.43,13.07,17.05,10.7-14.93,34.79-11.7,35.41,6.52,.71,20.99-21.63,28.38-40.72,21.62Z"/><path class="cls-2" d="M310.82,297.13c-.18,2.42-.17,4.81,.05,7.2,1.27,13.48,8.39,21.93,11.51,23.34,4.83-10.75,25.44-13.83,30.98,1.63,5.77,16.04-5.64,28.75-22.07,29.11-17.92,.41-39.61-10.96-41.13-42.63-.1-1.9-.13-3.85-.07-5.9,1.25-42.37,37.14-68.03,37.14-68.03l38.54,3.31-6.12,9.7-30.58,2.8c-8.63,9.78-17.09,24.64-18.26,39.46Z"/><path class="cls-2" d="M412.26,332.72l-12.47,7.7s-20.86-28.71-.16-58.41c-12.69-4.65-16.95-16.71-16.95-16.71,0,0-11.07,6.8-11.4,19.97,0,0,10.69-.58,18.8-3.24,2.71,29.3-12.31,45.84-35.89,41.75-1.8-6.13-10.61-14.53-22.72-9.9,0,0-9.03-12.37-11.31-23.47-.25-1.15-.41-2.3-.49-3.43l28.88-21.45s-1.78,4.19-2.37,9.9c-.51,5.16-.06,11.53,3.58,17.18,8.22,12.81,25.42,9.39,28.77,2.71,0,0-16.06,4.93-21.02-3.67-3.37-5.84-1.22-14.25,2.81-22.54,6.85-14.05,19.14-27.72,19.14-27.72,0,0,2.98,9.86,11.36,17.31,4.82,4.28,11.43,7.78,20.29,8.14l8.4,25.91s-19.25,11.57-7.25,39.96Z"/><path class="cls-2" d="M469.94,260.62c-14.81,.81-29-1.44-54.18-7.3l5.19,23.72,34.08-5.01,.32,7.07-31.72,9.81,2.79,19.89s23.01-6.44,26.5,15.34l19.14-2.15s-2.76-51.77-2.12-61.37Zm-24.6,35.84l10.92-5.99,.65,11.35c-3.69-5.5-11.57-5.36-11.57-5.36Z"/></g></g><g><path class="cls-2" d="M105.2,391.1c-1.18,0-2.17,.42-2.99,1.26-.82,.84-1.23,1.85-1.23,3.02s.41,2.18,1.23,2.99c.82,.82,1.82,1.23,2.99,1.23s2.18-.41,3.02-1.23c.84-.82,1.26-1.82,1.26-2.99s-.41-2.24-1.23-3.06c-.82-.82-1.84-1.23-3.05-1.23Z"/><path class="cls-2" d="M144.33,345.49h-7.12v1.38c0,1.76,.21,3.82,.63,6.18-.8-1.64-2.02-2.46-3.65-2.46h-43.22v-5.1h-7.12v1.38c0,1.76,.21,3.82,.63,6.18-.8-1.64-2.02-2.46-3.65-2.46H43.84v.11c-2.54,.13-4.8,.7-6.65,1.88-2.08,1.32-3.67,3.17-4.76,5.55-1.09,2.37-1.87,4.93-2.33,7.69-.46,2.75-.67,5.83-.63,9.23,.08,5.46,1.2,9.78,3.34,12.95,2.14,3.17,5.29,4.76,9.45,4.76,.97,0,1.64-.04,2.01-.13v-6.37c-.25,.04-.69,.07-1.32,.07-4.28,0-6.43-3.76-6.43-11.28,0-2.56,.1-4.8,.28-6.71,.19-1.91,.55-3.83,1.1-5.76,.55-1.94,1.41-3.42,2.58-4.44,1.18-1.03,2.63-1.55,4.35-1.55h3.84v26.84h7.12c1.47-1.97,3.32-4.07,5.55-6.3,2.22-2.22,4.33-4.09,6.3-5.61v20.67h7.06v-28.29h-7.06c-1.43,.67-3.27,1.94-5.51,3.78-2.25,1.85-4.36,3.87-6.33,6.05v-17.14h24.19c1.43,0,2.4,.32,2.9,.95s.76,1.76,.76,3.4v31.25h7.31v-35.6h7.69v5.42l9.89,6.3-10.02,6.99v7.19l-.06,.06,21.67,9.64h7.31v-35.6h5.92c1.43,0,2.4,.32,2.9,.95s.76,1.76,.76,3.4v31.25h7.31v-35.6h5.98v-5.98h-5.98v-5.1Zm-24.19,39.44l-14.18-6.61,9.26-6.74v-6.55l-12.29-8.44h17.2v28.35Z"/></g><g><path class="cls-2" d="M237.93,397.86c0-2.85-1-5.25-2.99-7.21-1.99-1.96-4.62-2.93-7.89-2.93-3.08,0-5.54,.83-7.38,2.5s-2.76,3.8-2.76,6.38c0,1.33,.19,2.56,.57,3.7h6.1c-.27-.91-.4-1.91-.4-3.02,0-1.21,.37-2.21,1.11-2.99,.74-.78,1.72-1.17,2.93-1.17,1.33,0,2.37,.42,3.13,1.25,.76,.83,1.14,2,1.14,3.48,0,2.13-.69,3.79-2.05,4.99-1.37,1.2-3.36,1.82-5.98,1.85h-5.41v5.3l10.83,7.58h8.83v-.69l-11.23-7.75c3.49-.46,6.28-1.65,8.35-3.59,2.07-1.94,3.11-4.5,3.11-7.69Z"/><path class="cls-2" d="M237.76,376.56c0-2.59-.73-4.62-2.2-6.13-1.46-1.5-3.62-2.25-6.47-2.25-1.29,0-2.89,.24-4.79,.71-1.9,.48-3.3,.72-4.22,.72-1.48,0-2.92-.33-4.33-.97v5.13c1.48,.8,3.11,1.2,4.9,1.2,1.02,0,2.4-.19,4.13-.57,1.73-.38,2.95-.57,3.68-.57,1.21,0,2.06,.31,2.53,.92,.47,.61,.71,1.5,.71,2.67,0,.69-.06,1.37-.17,2.05h-21.37v-4.61h-6.44v1.25c0,1.59,.19,3.45,.57,5.58-.72-1.49-1.82-2.22-3.3-2.22h-33.33v5.41h5.47v23.13c0,2.97,.89,5.3,2.68,7.01,1.79,1.71,4.1,2.56,6.95,2.56,3.95,0,7.29-1.63,10.03-4.87,2.74-3.25,4.1-6.81,4.1-10.68,0-3.12-.86-5.51-2.59-7.18-1.73-1.67-4.51-3.1-8.35-4.27l-6.21-1.94v-3.76h20.51c1.29,0,2.17,.29,2.62,.86,.46,.57,.68,1.59,.68,3.07v28.26h6.61v-32.19h31.51v-5.41h-4.22c.19-1.14,.28-2.11,.28-2.91Zm-52.99,20.11c2.05,.68,3.49,1.39,4.3,2.14,.82,.74,1.23,1.81,1.23,3.22,0,2.35-.74,4.59-2.22,6.69-1.48,2.11-3.23,3.17-5.24,3.17s-3.08-1.29-3.08-3.88v-13.05l5.01,1.71Z"/><path class="cls-2" d="M395.45,411.88c-1.07,0-1.97,.38-2.71,1.14-.74,.76-1.11,1.67-1.11,2.73s.37,1.97,1.11,2.71c.74,.74,1.64,1.11,2.71,1.11s1.97-.37,2.74-1.11c.76-.74,1.14-1.64,1.14-2.71s-.38-2.02-1.14-2.76c-.76-.74-1.67-1.11-2.74-1.11Z"/><path class="cls-2" d="M389.07,379.46H251.41v5.41h3.42v5.02c2.66,0,4.83,.76,6.52,2.28,1.69,1.52,2.77,3.71,3.22,6.55-.34,.42-.83,1.1-1.48,2.05-.65,.95-1.15,1.65-1.51,2.11-.36,.46-.88,.89-1.57,1.31-.68,.42-1.4,.62-2.16,.62-1.07,0-2.17-.17-3.3-.51v5.52c1.44,.49,2.85,.74,4.22,.74,1.6,0,3.01-.33,4.25-.97,1.23-.65,2.22-1.44,2.96-2.39,.74-.95,1.42-1.89,2.02-2.82,.61-.93,1.26-1.72,1.97-2.36,.7-.65,1.47-.97,2.31-.97,2.43,0,3.65,1.81,3.65,5.41v10.6h6.61v-32.19h24.04v3.42c-5.28,.99-11.11,4.2-17.49,9.63v6.61l17.43,12.53,.06-.06v.06h6.44v-23.07c2.77,.15,4.96,.92,6.58,2.3,1.62,1.39,2.42,3.17,2.42,5.33,0,3.31-1.5,4.96-4.5,4.96h-.63v6.04c.27,.04,.65,.06,1.14,.06,3.15,0,5.68-.97,7.58-2.91,1.9-1.94,2.85-4.65,2.85-8.15,0-3.95-1.52-7.15-4.56-9.6-3.04-2.45-6.67-3.71-10.88-3.79v-3.36h24.67c-2.74,2.93-4.1,8.49-4.1,16.69,.04,3,.42,5.65,1.14,7.95,.72,2.29,1.97,4.21,3.73,5.75,1.77,1.54,3.96,2.31,6.58,2.31,.95,0,1.59-.04,1.94-.11v-5.76c-.23,.04-.63,.06-1.2,.06-3.87,0-5.81-3.4-5.81-10.2,0-2.35,.09-4.43,.28-6.23,.19-1.81,.54-3.55,1.05-5.22,.51-1.67,1.28-2.96,2.31-3.88,1.03-.91,2.28-1.37,3.76-1.37h31.91v6.9c-1.02-1.29-2.49-1.94-4.39-1.94-1.75,0-3.17,.49-4.27,1.48-1.1,.99-1.84,2.26-2.22,3.82-.34-1.56-1.22-2.82-2.62-3.79-1.41-.97-3.21-1.45-5.41-1.45-3.19,0-5.69,1-7.49,2.99-1.81,2-2.71,4.53-2.71,7.61,0,3.38,1,6.06,2.99,8.03,2,1.97,4.66,2.96,8.01,2.96,1.22,0,2.43-.11,3.65-.34v-5.58c-1.14,.19-2.11,.29-2.91,.29-1.52,0-2.75-.44-3.71-1.31-.95-.87-1.42-2.2-1.42-3.99,0-1.52,.36-2.73,1.08-3.64,.72-.91,1.75-1.37,3.08-1.37,2.74,0,4.1,1.79,4.1,5.36v1.54h6.78v-1.2c0-3.83,1.27-5.75,3.82-5.75s3.65,1.59,3.65,4.79v16.81h6.61v-32.19h24.04v3.48c-6.12,1.64-11.95,4.83-17.49,9.57v6.61l17.43,12.53,.06-.06v.06h6.44v-32.19h5.41v-5.41h-32.7Zm-113.16,18.17c-1.07-1.52-2.74-2.28-5.02-2.28-.42,0-.74,.02-.97,.05-.53-2.39-1.56-4.52-3.08-6.38-1.52-1.86-3.44-3.25-5.76-4.16h14.81v12.76Zm30.65,12.31l-11.68-8.72c4.14-3.57,8.03-5.89,11.68-6.95v15.67Zm103.36-.05l-11.62-8.66c3.49-2.81,7.37-5.01,11.62-6.61v15.27Z"/></g><g><g><path class="cls-28" d="M148.27,313.9c-4.36,.84-8.7,1.59-13.01,2.27,.15-2.7,.34-13.57-5.68-19.73-6.94-7.12-14.06-2.36-14.06-2.36,8.73-2.05,20.49,12.26,9.39,18.5-11.08,6.23-25.98,1.86-31.26-8.24-3.41-6.53-4.28-26.12,15.79-26.73,16.54-.49,24.44,14.27,24.44,14.27l-1.09-24.64-33.06,2.4-.91-19.52,58.43,5.8c-10.73,18.82-9.8,47.08-8.98,57.98Z"/><path class="cls-6" d="M90.14,261.61l-5.39,59.47c-4.43,.2-8.77,.33-13.02,.4l-2.14-48.85,12.17-6.52-12.38,.29c-13.53-13.21-12.5-41.64,9.29-55.04,29.68-18.25,76.72-11.41,102.32,11.21l-29.52,28.25s-17.36-21.34-46.53-21.53c-24.18-.18-29.69,22.17-14.79,32.32Z"/><path class="cls-4" d="M173.13,284.79c-.18,7.59,1.78,15.39,4.77,22.11-8.01,2.29-16.08,4.25-24.14,5.92-1.66-9.16-1.51-19.96,1.24-32.47,7.11-32.38,35.32-49.09,35.32-49.09l8.65,6.55c-18.22,11.09-25.39,29.1-25.84,46.98Z"/><path class="cls-11" d="M229.03,279.53l-11.15,10.67c2.18-.66,4.21-.95,6.06-1.01-8.89,4.46-18.08,8.35-27.44,11.72l-4.58-10.81,22.49-12.55c-26.29,7.04-35.13-19.43-20.73-29.96,10.8-7.91,30.88,.53,28.11,12.93-1.6,7.08-10.45,9.48-14.45,7,0,0-.01,4.03,4.61,4.78,6.66,1.12,12.31-4.74,12.31-4.74l4.77,11.96Z"/><path class="cls-3" d="M218.3,208.04c1.61-8.25,13.41-9.94,16.85-4.18,3.41,5.76-1.68,16.96-9.66,15.51-5.38-1-8.17-6.34-7.19-11.33Z"/><path class="cls-5" d="M233.99,250.61c8.45-.14,15.93-2.23,22.81-5.56l-2.69,25.69c-5.99,4.44-12.2,8.5-18.63,12.23l-1.49-32.35Z"/><path class="cls-24" d="M242.72,211.92l21.4,11.25s-4.62,15.46-25.36,17.79c-22.54,2.54-31.7-15.87-31.7-15.87l6-8.49c2.71,5.01,10.65,11.61,20.76,9.18,9.07-2.17,8.89-13.86,8.89-13.86Z"/><path class="cls-7" d="M284.1,242.48c-6.17,7.45-12.9,14.22-20.09,20.35l3.11-25.79,15.94,.39,1.04,5.05Z"/></g><g><path class="cls-13" d="M284.96,321.59l.59,19.91-15.88,1.15c4.61-7.56,9.75-14.58,15.29-21.06Z"/><path class="cls-19" d="M353.36,329.3c5.77,16.04-5.64,28.75-22.07,29.11-17.92,.41-39.61-10.96-41.13-42.63,6.41-6.83,13.33-13.02,20.65-18.66-.18,2.42-.17,4.81,.05,7.2,1.27,13.48,8.39,21.93,11.51,23.34,4.83-10.75,25.44-13.83,30.98,1.63Z"/><path class="cls-23" d="M412.26,332.72l-12.47,7.7s-20.86-28.71-.16-58.41c-12.69-4.65-16.95-16.71-16.95-16.71,0,0-11.07,6.8-11.4,19.97,0,0,10.69-.58,18.8-3.24,2.71,29.3-12.31,45.84-35.89,41.75-1.8-6.13-10.61-14.53-22.72-9.9,0,0-9.03-12.37-11.31-23.47,8.31-5.63,17.02-10.58,26.02-14.97-.51,5.16-.06,11.53,3.58,17.18,8.22,12.81,25.42,9.39,28.77,2.71,0,0-16.06,4.93-21.02-3.67-3.37-5.84-1.22-14.25,2.81-22.54,9.96-4.08,20.18-7.51,30.5-10.42,4.82,4.28,11.43,7.78,20.29,8.14l8.4,25.91s-19.25,11.57-7.25,39.96Z"/><path class="cls-17" d="M443.73,318.53c4.13,6.95-2.02,20.45-11.65,18.69-6.5-1.19-9.85-7.65-8.68-13.64,1.95-9.95,16.2-11.99,20.33-5.05Z"/><path class="cls-14" d="M469.94,260.62c-14.81,.81-29-1.44-54.18-7.3l5.19,23.72,34.08-5.01,.32,7.07-31.72,9.81,2.79,19.89s23.01-6.44,26.5,15.34l19.14-2.15s-2.76-51.77-2.12-61.37Zm-24.6,35.84l10.92-5.99,.65,11.35c-3.69-5.5-11.57-5.36-11.57-5.36Z"/></g></g><g><path class="cls-12" d="M487.82,181.2c-2.63,.05-4.97,.1-6.16,.12-7.89-4.87-17.68-5.02-25.83-3.1-.17,0-11.87,3.42-13.71,3.93l-11.42,.16-.2-11.77c-.09-5.14-4.38-9.21-9.52-9.02l-24.83,.9v.65l23.97,.87c4,.15,7.15,3.46,7.08,7.47l-.22,12.81-.03,1.85,1.91,.03c.29,0,13.52,.24,13.8,.24l.3-.08c-.19,.05,13.24-3.35,13.74-3.48,8.38-1.66,16.91-.92,23.29,4.04l.92,.02,6.88,.14c3.27,.07,5.86,2.76,5.83,6.03-.31,30.74,.83,61.48,3.3,92.21,3.16-23.94,3.2-70.34,3.01-92.25-.06-6.61-5.51-11.9-12.12-11.77Z"/><path class="cls-12" d="M118.19,94.4c10.2-23.03,35.64-37.8,60.83-35.51,14.85-13.62,50.93-15.87,70.84-.56l-1.8-.47c25.75-3.19,53.08,11.26,63.47,35.38l-1.54-1.51c10.31,4.94,19.35,12.63,25.27,22.27,5.52,9.04,10.64,22.36,8.42,31.72-2.75-21.56-17.04-40.45-36.21-48.33l-.99-.41c-5.18-10.93-13.74-20.01-24.2-26.05-10.37-6.01-22.69-8.83-34.74-7.65l-.75-.56c-19.19-14.29-47.62-14.49-67.5-.46-25.05-3.99-49.44,11.86-61.1,32.14h0Z"/><path class="cls-12" d="M53.5,424.31c-65.99,8.91-70.68-90.71-16.24-109.94l10.1,.02-2.8,2.87-2.1-38.34c-19.03-25.9-6.54-77.87,29.65-92.58l.31,.57c-30.36,18.27-42.03,59.92-23.82,90.16,1.11,1.04,1.21,41.66,1.55,42.93-1.84-.06-11.01-1-12.98-.43-6.69,1.91-21.55,12.07-26.62,23.61-18.28,36.53-2.82,84.44,42.95,81.13h0Z"/><path class="cls-12" d="M452.26,389.01l-.65,.02,.34,46.78c.04,5.75-4.64,10.42-10.39,10.35l-34.59-.4h-.5l-.53,.29c-6.57,3.3-15.75,2.42-22.59-.38-39.91-.67-80-1.12-119.97-1.19v.5c-21.02-.11-42.05,.19-63.07,.63-11.06-.35-22.3,1.99-32.35-1.26-12.17-3.53-17.76-11.13-24.35-20.23,5.45,16.29,23.04,27.07,40.12,26.32l16.58,.4c22.1,.46,44.2,.78,66.31,.62l3.24-.02v-.5c37.56-.02,75.11-.81,112.67-1.02,3.97,2.33,17.66,3.93,24.96-.26l34.41-.4c7.13-.08,12.77-6.05,12.46-13.17l-2.08-47.07Z"/></g></svg>